<?xml version="1.0" standalone="no"?>
<!DOCTYPE svg PUBLIC "-//W3C//DTD SVG 20010904//EN"
 "http://www.w3.org/TR/2001/REC-SVG-20010904/DTD/svg10.dtd">
<svg version="1.0" xmlns="http://www.w3.org/2000/svg"
 width="1986.000000pt" height="478.000000pt" viewBox="0 0 1986.000000 478.000000"
 preserveAspectRatio="xMidYMid meet">
<metadata>
Created by potrace 1.16, written by Peter Selinger 2001-2019
</metadata>
<g transform="translate(0.000000,478.000000) scale(0.100000,-0.100000)"
fill="#00aeff" stroke="none">
<path d="M11140 3158 l1 -1623 290 -390 c159 -214 295 -397 302 -406 19 -27
716 -412 733 -405 12 5 14 14 9 38 -9 41 -375 1269 -381 1280 -3 4 -12 8 -20
8 -12 0 -14 92 -14 663 0 364 5 691 10 726 22 154 126 271 272 306 155 36 270
1 349 -108 60 -82 58 -64 59 -940 0 -441 -3 -833 -5 -872 -3 -38 -35 -358 -71
-709 -41 -410 -61 -643 -55 -649 5 -5 18 -6 28 -2 10 5 25 7 33 6 12 -1 593
529 737 672 29 29 43 69 143 409 l111 377 -1 859 c-1 940 -2 964 -59 1143 -85
263 -262 421 -545 486 -51 12 -118 17 -241 16 -151 0 -181 -3 -268 -26 -158
-42 -312 -122 -434 -224 -28 -23 -54 -43 -57 -43 -3 0 -6 232 -6 515 l0 515
-460 0 -460 0 0 -1622z"/>
<path d="M133 4703 c4 -16 85 -365 182 -778 173 -740 276 -1177 420 -1795 40
-173 85 -364 100 -425 14 -60 23 -120 20 -132 -5 -22 338 -1119 356 -1138 6
-6 16 -6 27 1 14 9 52 -23 245 -210 210 -204 231 -221 267 -224 34 -3 40 0 44
20 5 22 163 1185 191 1408 7 58 13 119 13 135 0 17 43 233 95 480 207 972 286
1342 297 1393 12 55 24 66 33 30 3 -13 96 -449 207 -970 l201 -947 -131 -742
c-85 -481 -128 -745 -122 -751 6 -6 19 -7 29 -4 11 4 286 303 612 666 325 363
596 660 601 660 6 0 10 5 10 11 0 6 25 39 57 74 l56 63 77 329 c43 180 128
544 189 808 62 264 128 545 147 625 67 285 322 1376 329 1408 l7 32 -508 -2
-508 -3 -87 -460 c-49 -253 -125 -657 -170 -897 -46 -241 -86 -438 -90 -438
-4 0 -10 8 -13 18 -7 26 -376 1763 -376 1773 0 5 -227 9 -505 9 l-505 0 -5
-22 c-3 -13 -84 -416 -179 -896 -96 -481 -177 -876 -180 -879 -3 -4 -8 -4 -10
-2 -3 3 -59 272 -125 599 -66 327 -147 729 -180 894 -34 164 -61 300 -61 302
0 2 -239 4 -531 4 l-531 0 5 -27z"/>
<path d="M16155 4349 c-203 -19 -445 -79 -614 -151 -165 -70 -377 -196 -463
-276 l-27 -25 -79 75 c-179 171 -253 212 -378 213 -73 0 -85 -3 -130 -30 -112
-70 -147 -257 -77 -413 l16 -37 7 62 c4 34 19 85 33 115 30 61 73 107 86 92 5
-5 28 -54 51 -108 48 -115 116 -252 170 -346 21 -36 56 -119 78 -185 70 -209
136 -337 219 -421 119 -121 329 -287 397 -313 l45 -17 -29 -34 -30 -35 62 -11
c35 -6 54 -12 42 -13 -12 0 -48 -14 -80 -31 -57 -29 -73 -27 -74 6 0 6 -9 19
-20 29 -11 10 -22 33 -26 52 -18 95 -166 96 -205 1 -17 -42 -15 -61 12 -97 12
-16 23 -41 24 -56 2 -14 8 -32 14 -38 5 -7 15 -34 21 -61 9 -41 8 -51 -8 -74
-24 -36 -52 -99 -52 -117 0 -8 -23 -26 -52 -40 -101 -51 -224 -160 -262 -233
-26 -51 -38 -133 -27 -183 7 -31 7 -53 -1 -76 -11 -31 -15 -33 -59 -33 l-46 0
-36 78 c-46 102 -81 216 -114 370 -23 113 -26 150 -27 327 0 163 4 222 22 321
39 215 105 407 199 577 l46 82 -12 62 c-12 63 -75 188 -90 179 -17 -11 -144
-230 -192 -332 -228 -482 -257 -1062 -80 -1564 23 -63 41 -118 41 -121 0 -3
-42 -9 -92 -13 -51 -4 -124 -15 -163 -24 l-70 -17 175 -6 c96 -4 246 -7 333
-8 183 -1 183 -1 110 -84 -27 -30 -53 -62 -59 -73 -8 -13 -27 -20 -70 -25
l-59 -6 66 -2 c36 0 72 -7 81 -14 8 -6 21 -34 28 -60 7 -27 20 -52 29 -55 22
-9 -20 -20 -84 -22 -27 -1 -68 -7 -90 -14 l-40 -13 50 -6 c28 -3 83 -9 123
-13 39 -3 72 -10 72 -15 0 -5 7 -9 15 -9 8 0 15 -7 15 -15 0 -9 6 -12 15 -9 9
4 15 0 15 -10 0 -10 5 -13 17 -9 10 4 14 2 10 -4 -5 -7 15 -14 55 -20 50 -7 6
-10 -220 -16 -283 -7 -407 -15 -397 -25 3 -3 166 -9 363 -12 324 -7 360 -9
389 -26 18 -11 33 -22 33 -25 0 -9 -42 -16 -175 -30 -179 -19 -165 -28 45 -29
211 -1 271 -7 278 -29 3 -8 0 -11 -7 -7 -7 4 -9 1 -5 -8 3 -9 25 -18 52 -21
66 -9 71 -12 37 -20 -16 -3 -37 -9 -45 -12 -8 -3 -21 -7 -28 -9 -8 -1 -21 -6
-30 -10 -23 -10 -36 -12 -122 -20 -41 -3 -101 -14 -134 -25 -41 -12 -62 -15
-67 -8 -5 8 -9 8 -13 0 -4 -6 -27 -11 -52 -11 -24 0 -44 -4 -44 -8 0 -4 -8 -8
-17 -9 -174 -10 -235 -17 -209 -24 56 -15 292 -29 499 -29 145 0 206 -3 202
-11 -4 -6 -13 -8 -20 -5 -8 3 -17 -4 -20 -15 -4 -10 -10 -17 -14 -15 -12 8
-73 -33 -66 -44 4 -6 3 -9 -2 -8 -15 4 -73 -21 -73 -31 0 -6 3 -10 8 -10 4 1
39 1 77 0 60 -1 72 -4 83 -22 9 -14 10 -19 2 -14 -8 5 -10 2 -6 -11 3 -12 -9
-43 -32 -83 -36 -62 -40 -65 -102 -86 l-65 -22 139 -6 c77 -4 206 -7 288 -7
85 0 148 -4 148 -9 0 -6 -13 -44 -29 -85 l-29 -76 790 0 c748 0 790 1 785 17
-2 10 -16 48 -30 85 l-26 68 177 1 c97 1 224 4 282 8 l105 6 -60 20 -60 20
-45 88 c-53 103 -51 106 55 108 102 1 119 10 61 34 -25 11 -46 25 -46 32 0 7
-9 13 -19 13 -11 0 -23 5 -27 11 -3 6 -20 19 -38 30 l-31 19 206 0 c203 0 455
15 494 30 19 7 -187 27 -228 22 -12 -1 -16 2 -11 10 5 7 0 9 -14 6 -12 -4 -42
0 -66 7 -24 8 -47 11 -49 8 -3 -3 -11 -2 -17 2 -6 4 -32 9 -58 11 -26 2 -60 6
-77 9 -16 3 -40 7 -52 7 -13 1 -23 6 -23 11 0 5 -14 7 -31 3 -18 -3 -38 -1
-45 5 -8 6 -14 8 -14 3 0 -5 -4 -3 -9 5 -5 7 -31 19 -57 27 l-49 13 43 0 c23
1 42 6 42 11 0 6 7 10 15 10 8 0 24 10 35 23 20 21 29 22 238 27 236 5 235 11
-3 35 -82 9 -151 18 -153 20 -2 2 8 11 22 21 38 24 145 33 436 34 140 1 278 5
305 9 l50 7 -65 7 c-36 4 -195 10 -355 14 -180 4 -274 10 -248 14 23 4 51 13
63 19 11 6 26 8 32 4 6 -4 8 -3 5 3 -4 6 7 16 23 23 16 7 28 16 25 20 -7 11
26 17 120 25 44 3 100 8 125 11 42 6 43 6 21 18 -13 7 -55 14 -93 15 -38 1
-81 6 -94 11 -23 9 -24 11 -9 33 8 13 12 27 8 30 -3 4 -1 7 6 7 8 0 11 7 7 15
-3 8 -1 15 4 15 6 0 10 6 10 14 0 18 30 25 115 28 57 1 61 2 20 5 -74 5 -93
11 -100 33 -5 17 -32 51 -80 101 -8 9 -15 23 -15 32 0 15 16 17 133 17 72 0
224 3 337 7 192 6 202 8 160 20 -25 7 -96 18 -157 25 -62 6 -113 15 -113 19 0
3 12 38 26 75 135 355 168 754 93 1125 -54 273 -179 571 -320 770 l-37 51 -37
-63 -36 -62 22 -51 c15 -33 24 -75 25 -122 3 -55 11 -89 40 -155 214 -494 217
-1031 10 -1492 l-26 -57 -60 0 c-54 0 -60 2 -66 24 -3 13 -1 41 5 62 35 127
-25 252 -179 367 -32 25 -80 55 -106 67 -26 13 -49 32 -52 42 -12 46 -76 165
-113 209 -52 62 -173 143 -238 160 -28 7 -51 16 -51 20 0 5 25 9 55 11 l56 3
-30 35 c-17 19 -30 38 -31 41 0 3 17 11 38 17 20 6 61 27 90 46 35 23 54 31
57 23 2 -7 8 -28 14 -48 21 -68 88 -112 149 -98 42 9 68 33 95 84 28 55 36
223 14 277 -13 31 -13 39 -2 48 8 7 27 32 42 56 25 40 32 44 68 44 96 1 173
73 183 170 6 66 -4 111 -34 155 -30 45 -30 48 51 190 60 107 134 260 176 367
28 73 34 77 69 43 41 -40 71 -108 79 -185 l7 -65 23 50 c32 70 40 195 17 266
-23 68 -51 105 -106 137 -40 24 -55 27 -130 26 -72 0 -94 -5 -144 -28 -62 -30
-196 -138 -286 -230 -47 -49 -59 -56 -93 -56 -64 0 -103 -51 -100 -128 1 -7
-49 -57 -110 -110 -61 -53 -157 -138 -213 -189 -82 -75 -104 -90 -113 -79 -7
8 -36 24 -66 37 -30 13 -55 27 -55 31 0 3 20 14 45 24 25 9 42 20 38 25 -11
10 -141 29 -159 22 -8 -3 -14 0 -14 5 0 13 92 57 140 67 l34 7 -22 19 c-13 10
-49 28 -80 39 -69 26 -196 24 -249 -3 -18 -10 -33 -16 -33 -13 0 2 11 24 25
47 28 49 31 64 13 52 -13 -7 7 28 47 82 44 60 44 59 -29 52 -36 -3 -87 -15
-113 -27 -25 -11 -47 -20 -49 -20 -10 0 -2 101 11 159 9 35 13 66 11 68 -11
11 -115 -56 -168 -108 -64 -63 -104 -137 -114 -213 l-7 -49 -18 38 c-45 91
-121 149 -215 162 l-48 6 21 -34 c55 -90 61 -103 56 -115 -3 -7 6 -34 20 -59
29 -50 28 -52 -10 -27 -22 13 -49 17 -133 17 -95 0 -110 -3 -157 -27 -28 -15
-54 -31 -57 -36 -3 -5 16 -14 42 -21 27 -6 65 -22 86 -35 l39 -23 -59 -7
c-127 -15 -140 -23 -74 -50 22 -9 40 -18 40 -20 0 -2 -30 -21 -66 -41 l-67
-36 -26 23 c-14 13 -28 25 -31 28 -3 3 -57 50 -120 105 -251 216 -261 226
-248 243 22 26 180 126 286 180 266 137 538 202 847 202 364 0 717 -104 1003
-294 38 -25 72 -46 75 -46 3 0 7 10 11 23 10 42 69 88 122 95 l49 7 -59 47
c-343 270 -911 424 -1391 377z m-1460 -243 c68 -31 149 -100 355 -302 96 -94
249 -237 340 -316 170 -150 221 -204 245 -263 16 -37 11 -67 -10 -59 -7 3 -27
25 -45 50 -18 25 -34 44 -36 42 -2 -2 3 -22 11 -43 18 -52 20 -119 3 -109 -10
6 -10 4 -2 -7 7 -9 8 -28 2 -57 -9 -40 -11 -42 -23 -25 -8 10 -14 23 -15 28 0
6 5 3 11 -5 9 -13 10 -13 6 0 -2 8 -10 14 -17 12 -14 -3 -41 29 -33 41 2 4 1
6 -4 5 -4 -2 -10 2 -13 7 -2 6 -28 32 -57 58 -31 30 -50 54 -46 63 3 8 -3 17
-13 20 -11 4 -73 60 -139 124 -66 64 -149 143 -184 176 -35 33 -100 112 -145
178 -91 135 -227 284 -293 323 -24 14 -63 31 -86 38 l-41 12 29 16 c46 25 140
22 200 -7z m3493 8 l37 -17 -41 -12 c-73 -23 -122 -54 -190 -122 -71 -72 -150
-172 -228 -290 -26 -39 -75 -95 -109 -125 -34 -29 -123 -112 -197 -185 -74
-72 -137 -131 -140 -131 -15 2 -70 -41 -61 -46 6 -4 11 -2 11 5 0 7 3 10 6 6
4 -3 15 4 26 16 11 12 18 17 16 11 -6 -21 -78 -94 -93 -94 -14 0 -19 -11 -16
-37 1 -7 -2 -13 -7 -13 -4 0 -14 6 -22 13 -12 10 -12 9 -1 -5 11 -15 11 -21 1
-33 -11 -13 -15 -13 -22 -3 -6 9 -7 6 -3 -9 3 -12 1 -24 -5 -28 -18 -11 -21 0
-10 30 9 23 8 26 -5 21 -8 -3 -15 -1 -15 4 0 13 27 13 35 0 3 -5 11 -10 16
-10 17 0 -1 21 -27 30 -13 5 -24 17 -25 27 -2 40 4 80 17 113 14 34 13 34 -30
-15 -34 -39 -47 -47 -56 -38 -36 34 41 135 225 294 77 67 232 212 345 324 205
201 300 282 375 316 50 23 143 25 193 3z m-3393 -454 c17 -34 17 -34 0 -20
-17 14 -18 14 -6 -8 7 -12 16 -20 22 -17 5 4 14 -4 19 -17 23 -50 57 -98 65
-91 4 5 5 3 2 -3 -4 -7 0 -17 8 -24 8 -7 18 -35 21 -63 5 -33 9 -45 14 -33 4
13 12 4 33 -41 43 -89 54 -107 76 -115 27 -10 28 -32 1 -25 -11 3 -20 1 -20
-4 0 -5 8 -9 18 -9 24 0 77 -83 65 -103 -3 -6 -1 -7 5 -3 7 4 12 1 12 -8 0 -9
5 -16 11 -16 5 0 7 -5 3 -12 -6 -9 -9 -9 -12 0 -2 7 -9 12 -15 12 -8 0 -7 -4
1 -12 7 -7 12 -19 12 -28 0 -9 7 -25 16 -36 14 -18 15 -18 4 4 -6 13 -9 30 -6
39 10 24 38 -4 31 -31 -5 -15 -4 -17 3 -7 8 11 13 7 26 -17 9 -17 22 -34 28
-38 10 -6 10 -5 0 8 -10 12 -9 18 3 28 13 11 14 10 9 -4 -5 -12 -2 -15 12 -9
11 4 15 3 11 -4 -4 -6 0 -13 8 -17 21 -8 19 -27 -2 -20 -14 5 -15 4 -4 -4 7
-5 18 -16 23 -23 7 -10 8 -9 4 6 -6 19 -5 19 8 3 18 -24 29 -23 16 1 -15 29
-12 39 5 17 8 -11 15 -16 15 -11 0 5 11 -2 25 -15 19 -18 22 -26 13 -37 -6 -8
-18 -11 -27 -7 -25 10 -71 12 -71 2 0 -15 -17 -8 -56 23 -22 17 -38 36 -36 41
1 5 -2 7 -6 4 -5 -3 -18 5 -27 18 -10 13 -23 22 -30 20 -6 -3 -22 7 -34 20
-20 21 -22 28 -11 41 11 13 10 14 -5 8 -14 -5 -17 -3 -12 9 3 9 0 19 -8 22
-10 3 -12 0 -9 -12 5 -15 4 -15 -6 1 -6 9 -8 22 -4 29 4 7 3 8 -4 4 -6 -3 -16
3 -22 14 -7 13 -7 20 0 20 5 0 10 4 10 10 0 5 -6 7 -13 4 -9 -3 -22 18 -40 61
-30 72 -33 90 -15 79 7 -4 8 -3 4 5 -4 6 -11 9 -15 7 -9 -6 -42 66 -62 132
-11 37 -10 45 2 53 10 8 9 9 -8 4 -16 -4 -23 0 -29 17 -5 13 -8 25 -9 28 0 5
-46 96 -70 139 -10 18 -10 27 -2 36 7 7 13 12 13 11 1 0 9 -17 19 -36z m1423
-355 c31 -33 53 -53 50 -45 -3 8 -8 26 -12 40 -7 24 -7 24 18 -5 14 -16 35
-54 48 -83 l22 -53 18 48 c10 27 29 62 43 78 l25 30 -6 -30 c-5 -30 -5 -30 38
16 69 73 169 140 107 72 -25 -27 -59 -78 -59 -87 0 -2 24 9 53 24 59 32 144
46 214 35 l48 -7 -51 -19 c-28 -11 -59 -28 -69 -39 -17 -19 -17 -19 34 -13 30
3 69 0 97 -7 l47 -13 -39 -12 c-43 -13 -94 -43 -94 -55 0 -5 8 -6 19 -3 10 3
34 -3 52 -13 l34 -17 -25 -7 c-36 -10 -84 -36 -99 -54 -12 -15 -10 -15 22 -1
49 20 133 19 183 -4 46 -21 100 -72 128 -121 19 -33 19 -33 0 -26 -123 51
-213 15 -388 -154 -124 -119 -171 -148 -218 -135 -21 5 -21 4 5 -17 112 -92
150 -122 130 -98 -24 27 -13 31 20 7 47 -36 92 -57 122 -57 15 0 25 -6 25 -14
0 -8 5 -18 12 -22 7 -5 8 -3 3 6 -5 8 -1 18 10 27 17 12 16 13 -16 14 -31 1
-29 2 17 13 52 13 105 44 136 81 24 29 48 102 48 149 0 27 3 36 9 27 5 -7 13
-11 18 -8 6 4 16 -5 23 -18 10 -19 16 -22 27 -13 11 9 13 4 11 -28 -2 -21 -9
-39 -15 -39 -20 0 -25 -13 -14 -33 8 -16 8 -24 -2 -34 -8 -7 -12 -19 -9 -27 3
-8 -1 -12 -9 -9 -8 3 -13 13 -13 22 2 13 -1 14 -12 5 -16 -13 -19 -34 -5 -24
5 3 13 0 17 -6 11 -18 -34 -51 -54 -40 -13 8 -21 1 -38 -32 -12 -24 -28 -41
-37 -41 -8 1 -13 -4 -11 -10 3 -7 -11 -19 -30 -29 l-35 -16 -21 29 c-12 17
-27 30 -35 30 -7 0 -42 -35 -77 -77 l-64 -78 -250 0 c-282 1 -248 -9 -333 94
-24 29 -56 57 -69 62 -30 11 -19 27 23 35 15 3 46 17 69 33 64 43 67 44 59 24
-4 -11 12 -2 39 22 25 22 60 51 78 65 l33 26 -42 1 c-52 2 -79 21 -212 148
-126 121 -191 158 -278 158 -31 0 -67 -6 -80 -13 l-25 -13 26 44 c34 59 111
117 166 125 45 7 113 2 147 -11 14 -6 11 -1 -8 15 -16 12 -47 28 -70 35 l-42
13 37 16 c21 9 45 16 53 16 39 0 -32 47 -90 60 -30 7 -30 7 15 19 25 7 68 11
97 9 46 -4 51 -3 40 10 -6 8 -34 25 -61 38 l-49 23 38 7 c73 13 160 -5 258
-54 17 -9 4 18 -30 63 l-36 48 32 -19 c18 -10 58 -46 89 -79z m-255 -592 c31
-24 57 -50 57 -57 0 -18 -44 -36 -85 -36 -65 0 -127 88 -104 147 9 23 9 23 41
7 18 -9 59 -37 91 -61z m894 51 c10 -27 -16 -91 -48 -118 -36 -30 -92 -35
-128 -10 l-23 16 34 35 c42 44 116 93 140 93 10 0 21 -7 25 -16z m-1106 -161
c30 -49 92 -91 146 -99 l46 -7 -29 -14 c-16 -7 -21 -11 -11 -8 9 2 17 0 17 -5
0 -6 -5 -10 -12 -10 -6 0 -3 -7 8 -15 12 -9 14 -14 6 -15 -7 0 -11 -3 -8 -8 2
-4 -2 -16 -10 -27 -14 -19 -14 -19 -15 1 0 10 -3 14 -6 7 -8 -20 -73 23 -77
51 -3 22 -33 46 -59 46 -13 0 -34 12 -48 27 -13 14 -17 23 -9 19 8 -4 6 0 -4
8 -11 9 -16 16 -12 16 5 0 -2 9 -15 20 -24 20 -24 20 -4 36 15 13 16 15 3 11
-12 -4 -19 3 -27 25 -18 51 -14 75 12 73 12 -1 31 4 42 12 19 13 21 10 32 -48
7 -34 23 -77 34 -96z m1219 -264 c0 -62 -5 -85 -26 -128 -17 -34 -29 -48 -34
-41 -5 9 -13 9 -26 2 -18 -10 -64 3 -64 18 0 4 -9 10 -20 13 -26 7 -25 23 3
51 51 51 97 114 117 161 l22 50 13 -25 c9 -15 14 -55 15 -101z m-1197 58 c15
-28 52 -79 81 -113 41 -46 52 -64 43 -73 -6 -6 -16 -11 -23 -11 -6 0 -23 -9
-38 -21 -63 -50 -121 27 -121 161 0 74 7 110 22 110 4 0 20 -24 36 -53z m-316
-149 c176 -310 415 -800 398 -816 -14 -14 -101 117 -192 288 -22 41 -101 188
-176 325 -75 138 -143 268 -152 290 l-16 40 31 -35 31 -35 -16 39 c-18 47 -18
46 -2 46 7 0 50 -64 94 -142z m1834 69 c30 -20 71 -56 92 -81 42 -50 87 -139
87 -172 0 -14 12 -26 38 -38 46 -22 139 -96 147 -116 3 -8 23 -25 45 -38 53
-30 92 -90 98 -151 l4 -49 -63 60 c-44 41 -93 74 -154 103 -88 43 -89 44 -62
54 16 6 34 11 40 11 7 0 -6 11 -28 25 -22 13 -47 22 -57 19 -9 -3 -19 0 -23 5
-4 7 1 8 11 4 30 -11 5 16 -29 33 -29 13 -30 13 -13 -1 17 -13 18 -15 3 -15
-21 0 -57 35 -57 54 0 9 -16 17 -42 21 -67 11 -78 21 -78 64 0 21 -5 52 -11
69 -7 22 -7 36 1 51 9 18 7 25 -14 45 -13 14 -21 27 -18 30 3 3 0 6 -7 6 -16
0 -42 26 -34 34 4 3 2 6 -4 6 -5 0 -10 6 -10 14 0 21 72 -3 138 -47z m-1965
-5 c17 -31 57 -106 89 -167 32 -60 99 -182 148 -270 116 -204 190 -345 184
-351 -18 -18 -119 149 -337 560 -117 220 -145 286 -122 286 4 0 21 -26 38 -58z
m1199 -77 c119 -20 164 -34 275 -89 64 -32 100 -44 116 -40 32 8 30 -2 -3 -20
-41 -21 -125 -12 -228 24 -237 82 -442 80 -705 -4 -58 -19 -109 -30 -115 -26
-5 5 -36 11 -68 15 -64 8 -87 22 -26 17 30 -3 53 4 104 32 169 93 424 128 650
91z m-1269 -221 c-9 -6 -13 -14 -9 -18 4 -4 0 -4 -10 0 -12 4 -32 -6 -63 -32
-25 -22 -54 -44 -65 -50 -17 -10 -14 -12 24 -24 l42 -12 -75 -29 c-41 -16 -99
-47 -128 -69 -29 -22 -57 -40 -62 -40 -30 0 9 91 54 125 17 13 54 46 82 73 28
27 74 62 101 77 30 17 58 42 68 62 l18 33 19 -42 c17 -38 17 -44 4 -54z m1141
10 c41 -31 73 -80 73 -112 0 -23 0 -23 -25 5 l-25 28 6 -45 c7 -50 7 -47 5
-75 -2 -17 -4 -15 -19 10 l-17 30 -5 -65 c-4 -36 -15 -87 -25 -114 l-19 -49
-19 44 c-11 24 -22 75 -25 113 l-5 70 -24 -30 -25 -29 5 50 c3 28 9 59 13 70
6 16 0 14 -25 -10 l-33 -30 7 30 c11 44 36 81 75 110 43 32 65 31 107 -1z
m-1104 -180 c58 -15 144 -53 122 -54 -5 0 -47 7 -93 16 -74 15 -84 15 -100 1
-9 -8 -58 -35 -109 -61 -79 -39 -93 -50 -102 -79 -8 -24 -9 -42 -1 -61 8 -22
7 -28 -8 -33 -9 -3 -25 -13 -34 -21 -22 -19 -23 -10 -2 29 8 17 14 42 12 57
l-3 27 -27 -30 c-33 -35 -36 -26 -7 18 13 21 2 13 -30 -21 -58 -61 -65 -57
-19 12 52 79 139 140 272 192 74 28 57 27 129 8z m2270 -47 c98 -46 153 -88
199 -151 46 -64 32 -68 -28 -8 l-56 57 31 -47 c38 -57 40 -70 5 -29 -14 17
-30 31 -35 31 -16 0 -10 -44 12 -85 l21 -40 -23 21 c-13 12 -32 24 -41 27 -14
5 -15 12 -8 38 16 53 -4 79 -99 126 -46 23 -91 49 -100 58 -22 19 -30 19 -116
-2 -82 -20 -59 -31 27 -13 55 12 61 12 88 -8 16 -12 61 -38 101 -57 81 -39 89
-47 89 -89 l0 -29 -32 27 c-133 106 -307 149 -428 104 -39 -15 -13 6 59 47 86
48 169 76 209 71 17 -3 74 -25 125 -49z m-2188 -20 l70 -13 -104 -12 c-57 -7
-124 -21 -149 -32 -44 -20 -124 -78 -150 -109 -11 -14 -13 -9 -10 29 l3 45 75
40 c42 22 87 48 100 58 18 13 35 17 60 12 19 -3 67 -12 105 -18z m109 -57 c12
-4 -14 -9 -65 -13 -211 -15 -382 -135 -434 -306 -16 -54 -17 -71 -7 -134 6
-39 10 -73 8 -74 -6 -6 -81 59 -93 80 -7 12 -12 40 -12 62 l0 40 15 -50 c9
-27 25 -60 37 -72 l22 -23 -2 63 c-1 34 3 67 8 73 4 6 7 25 4 42 -2 18 0 30 6
27 5 -4 9 4 9 17 0 73 107 194 216 245 84 38 218 49 288 23z m1921 -13 c93
-24 265 -156 251 -192 -3 -9 -2 -13 4 -10 12 8 26 -29 29 -75 1 -19 5 -73 9
-120 l7 -85 28 40 c15 22 27 49 27 60 0 11 5 27 11 35 8 11 9 2 5 -35 -5 -37
-14 -57 -39 -83 -60 -63 -62 -62 -62 51 0 91 -3 108 -28 159 -34 69 -121 152
-199 190 -90 44 -250 59 -324 31 -12 -4 -15 -3 -10 5 22 36 198 53 291 29z
m-1828 -110 c17 -9 58 -41 90 -70 32 -29 72 -63 90 -75 30 -21 138 -156 164
-205 15 -27 30 -93 19 -81 -4 5 -13 26 -20 46 -6 21 -21 45 -33 53 -30 21 -89
19 -118 -4 -14 -10 -34 -21 -46 -23 l-22 -3 20 -25 20 -25 -6 25 c-5 17 -4 22
3 15 6 -5 12 -19 14 -30 1 -11 13 -30 26 -42 13 -13 19 -23 14 -23 -15 0 -122
110 -119 123 1 6 -5 12 -13 12 -8 1 -14 7 -12 14 2 8 -4 10 -17 6 -11 -3 -23
0 -27 6 -4 8 -3 9 4 5 17 -11 14 3 -4 22 -21 20 -107 24 -99 5 7 -21 -17 -15
-58 12 -41 28 -42 27 -27 -27 6 -21 10 -41 10 -44 -1 -4 11 -15 27 -25 15 -10
28 -24 28 -31 0 -7 15 -13 34 -14 24 -1 30 1 20 8 -31 21 38 -5 79 -31 26 -16
40 -31 37 -40 -3 -9 0 -11 10 -7 17 6 21 -19 5 -29 -6 -4 -7 -11 -4 -17 4 -6
-1 -8 -15 -3 -16 5 -27 1 -40 -14 -17 -20 -19 -20 -26 -4 -5 10 -7 24 -6 31 1
6 -3 12 -9 12 -5 0 -10 -8 -10 -17 -1 -31 -27 -54 -67 -59 -43 -5 -87 16 -63
31 9 5 11 4 6 -3 -5 -8 -1 -10 10 -5 15 6 15 7 0 15 -11 6 -22 6 -30 -1 -10
-8 -17 -7 -26 3 -6 9 -9 19 -6 24 3 5 -4 18 -17 28 -12 10 -16 12 -9 4 6 -8
12 -19 12 -24 -1 -10 -24 23 -25 34 0 3 -8 16 -17 29 -19 27 -28 25 -31 -8 -2
-25 -16 -23 -31 3 -6 11 -30 39 -53 64 -39 42 -43 44 -43 23 0 -21 -2 -22 -17
-10 -12 10 -15 11 -9 1 4 -7 2 -20 -6 -30 -12 -15 -11 -16 5 -3 15 12 17 11
17 -9 0 -14 -5 -20 -13 -17 -8 3 -14 -1 -14 -8 0 -7 6 -11 14 -8 7 3 13 0 13
-6 0 -6 -5 -11 -11 -11 -5 0 -8 -4 -5 -8 3 -5 -1 -9 -9 -9 -8 0 -12 4 -9 9 3
4 1 8 -4 8 -21 0 -29 94 -14 158 8 34 19 62 24 62 4 0 8 -6 8 -12 0 -9 4 -8
10 2 5 8 9 24 9 35 -1 16 -2 16 -9 -5 -7 -23 -8 -23 -9 -3 -1 26 45 83 67 83
13 0 14 2 4 9 -10 6 0 20 40 55 112 98 227 124 325 73z m1682 -28 c28 -6 79
-29 113 -52 35 -23 67 -41 72 -42 5 0 11 -7 13 -15 4 -13 3 -13 -6 0 -6 8 -11
10 -11 4 0 -6 18 -25 40 -43 29 -23 38 -36 31 -45 -7 -8 -6 -17 1 -26 8 -12 8
-11 3 5 -5 18 -4 18 8 5 8 -8 18 -26 21 -40 7 -24 6 -24 -8 -6 -9 11 -16 14
-16 7 0 -7 -4 -9 -10 -6 -6 3 -7 -1 -4 -9 3 -9 9 -15 12 -14 27 3 31 -5 28
-64 -3 -83 -19 -111 -91 -162 l-40 -29 44 40 c29 25 41 42 33 47 -6 3 -9 14
-6 24 5 14 4 15 -5 2 -9 -13 -13 -12 -26 7 -10 14 -23 20 -37 18 -22 -5 -42
-20 -44 -33 -2 -24 -40 -82 -51 -78 -18 7 -22 -4 -25 -78 -2 -61 -6 -71 -36
-104 l-34 -37 16 33 c9 17 21 32 27 32 6 0 3 7 -5 16 -23 23 -20 30 4 9 23
-21 25 -17 7 19 -8 14 -17 23 -20 19 -4 -3 -15 1 -25 10 -21 20 -72 31 -88 20
-6 -5 -16 -17 -22 -28 -26 -45 -12 37 19 110 23 55 42 84 77 115 77 67 84 74
73 78 -18 6 -116 -51 -150 -87 -18 -20 -30 -29 -25 -21 5 11 2 10 -12 -2 -16
-14 -23 -15 -32 -6 -9 9 -12 1 -12 -36 0 -60 -19 -127 -34 -120 -6 3 -4 -1 5
-8 14 -11 15 -17 4 -31 -6 -9 -15 -14 -19 -10 -4 4 -4 0 -1 -9 4 -9 0 -18 -9
-21 -23 -9 -21 32 2 50 12 11 13 13 2 10 -8 -2 -31 4 -50 15 -43 22 -59 23
-89 1 l-24 -16 7 51 c10 76 44 182 72 223 13 19 53 57 89 84 35 27 63 50 62
52 -9 8 -116 -31 -110 -40 4 -6 0 -8 -10 -4 -9 3 -18 -1 -21 -10 -4 -9 -13
-13 -22 -9 -10 4 -13 2 -8 -6 5 -8 2 -9 -10 -5 -10 4 -15 3 -11 -4 8 -12 -14
-41 -25 -34 -4 3 -12 -1 -17 -8 -14 -17 -45 -136 -46 -174 0 -18 -5 -33 -10
-33 -5 0 -7 -6 -4 -14 3 -8 -1 -22 -8 -33 -12 -16 -13 -15 -11 18 3 30 -1 38
-28 57 -40 27 -70 28 -96 2 -11 -11 -22 -20 -23 -20 -2 0 0 26 5 58 11 70 83
227 118 254 14 11 42 35 63 55 50 46 84 63 129 63 20 0 58 10 85 21 105 47
160 56 242 38z m-1334 -60 c53 -25 117 -84 141 -131 21 -39 22 -104 4 -138
-13 -24 -13 -24 -22 -4 -5 11 -31 30 -57 41 -40 16 -49 26 -54 52 -4 17 -20
66 -37 107 -30 75 -35 94 -25 94 3 0 25 -9 50 -21z m670 -290 c-8 -23 -15 -50
-15 -60 0 -13 -8 -19 -22 -20 -43 -3 -73 1 -76 9 -1 4 -21 6 -45 5 -37 -2 -35
-1 18 11 l60 13 -45 3 c-25 1 -58 5 -75 9 -28 7 -27 8 23 19 30 7 63 18 75 24
12 7 28 13 35 14 8 1 16 5 20 8 3 3 18 6 33 6 l28 0 -14 -41z m-21 -231 c4
-51 9 -94 12 -97 2 -2 49 6 105 18 55 13 103 21 105 18 3 -3 8 -30 11 -60 l6
-55 41 5 c22 3 80 15 128 27 l87 22 11 -30 c5 -16 10 -40 10 -52 0 -19 5 -24
24 -24 29 0 36 -12 187 -297 59 -112 102 -203 95 -204 -6 0 -107 0 -223 1
-142 1 -213 -2 -213 -9 0 -6 14 -45 30 -87 17 -42 29 -78 27 -81 -3 -2 -38 5
-78 16 -111 30 -242 49 -436 62 -255 18 -545 -6 -756 -63 -43 -11 -80 -19 -82
-17 -2 2 11 40 30 84 20 50 29 82 23 86 -6 4 -105 7 -220 7 -115 0 -212 3
-215 6 -5 4 67 145 176 346 23 41 62 114 87 161 l46 85 89 14 c85 12 96 11
254 -17 143 -25 165 -27 165 -14 0 21 -29 201 -36 224 -5 16 11 17 249 17
l254 0 7 -92z"/>
<path d="M16452 2522 c-12 -2 -32 -16 -44 -32 -12 -16 -25 -27 -29 -24 -4 2
-11 -1 -15 -7 -4 -8 -3 -9 4 -5 7 4 12 2 12 -3 0 -6 -4 -11 -10 -11 -5 0 -9
-3 -8 -7 0 -5 -2 -16 -7 -26 -6 -14 -10 -15 -21 -6 -8 6 -14 16 -14 21 0 6 7
5 15 -2 23 -19 18 -2 -6 23 -12 12 -19 15 -15 7 4 -8 -2 -4 -13 9 -12 12 -18
27 -15 32 3 5 -2 6 -10 3 -11 -4 -16 0 -16 10 0 22 -38 20 -74 -3 l-28 -19 23
-7 c13 -4 55 -28 92 -52 l68 -45 70 47 c39 25 79 47 89 48 13 1 16 5 10 13 -6
6 -8 14 -5 17 3 4 2 5 -2 2 -3 -3 -11 1 -17 8 -6 7 -21 11 -34 9z"/>
<path d="M15665 587 c-17 -8 -35 -20 -42 -28 -10 -12 24 -14 230 -13 349 2
387 3 387 13 0 5 -16 17 -36 26 -29 14 -45 15 -73 8 -39 -11 -305 -10 -386 1
-34 4 -60 2 -80 -7z"/>
<path d="M15615 444 c-38 -11 -135 -57 -135 -64 0 -17 31 -18 87 -3 45 12 82
14 168 8 61 -4 128 -6 150 -6 45 2 113 30 134 55 13 15 11 16 -30 9 -49 -9
-96 -9 -249 0 -58 3 -114 4 -125 1z"/>
<path d="M5997 4035 c-354 -43 -602 -157 -807 -372 -183 -191 -275 -419 -302
-746 -14 -173 -1 -377 33 -517 42 -173 42 -231 4 -982 -20 -384 -33 -703 -30
-708 3 -6 11 -10 16 -10 6 0 168 124 359 276 192 151 353 274 357 272 4 -1
213 -282 464 -623 l456 -620 59 -3 59 -3 253 356 c140 195 260 355 268 355 8
0 18 10 23 23 33 87 472 1699 465 1705 -5 4 -218 5 -474 2 l-465 -5 -8 -55
c-14 -102 -79 -195 -166 -240 -94 -47 -289 -64 -422 -36 -133 29 -222 96 -276
208 -36 75 -50 127 -59 231 l-7 77 917 0 916 0 0 83 c-1 313 -50 565 -144 750
-175 342 -512 538 -1010 586 -142 14 -343 12 -479 -4z m421 -590 c147 -35 246
-145 271 -305 6 -36 11 -71 11 -77 0 -10 -96 -13 -445 -13 -506 0 -457 -11
-430 93 42 161 161 275 320 305 77 15 203 13 273 -3z"/>
<path d="M9135 4044 c-288 -32 -500 -100 -678 -217 -251 -165 -401 -395 -468
-717 -30 -142 -37 -429 -14 -580 10 -63 17 -126 17 -140 0 -14 129 -524 286
-1135 261 -1008 289 -1110 307 -1110 17 0 20 7 21 40 0 31 48 137 212 472 117
238 212 437 212 443 0 41 40 -56 220 -543 l205 -552 91 -3 91 -3 6 28 c3 15
49 315 103 665 55 350 102 634 105 630 3 -4 68 -266 143 -582 76 -316 141
-579 146 -584 16 -17 40 3 39 31 -1 24 397 1838 451 2053 32 132 62 289 55
300 -4 6 -155 10 -435 10 l-429 0 -6 -47 c-33 -261 -170 -372 -458 -373 -243
0 -385 88 -450 281 -19 58 -21 90 -25 332 -4 299 5 372 57 474 81 159 255 233
478 203 226 -30 336 -135 358 -344 l7 -66 444 0 444 0 0 48 c-1 127 -46 315
-105 432 -135 267 -444 458 -860 530 -117 21 -468 35 -570 24z"/>
<path d="M18843 2474 c-10 -5 -13 -106 -13 -460 l0 -454 490 0 490 0 -2 458
-3 457 -475 2 c-261 1 -481 -1 -487 -3z"/>
</g>
</svg>
