<?xml version="1.0" standalone="no"?>
<!DOCTYPE svg PUBLIC "-//W3C//DTD SVG 20010904//EN"
 "http://www.w3.org/TR/2001/REC-SVG-20010904/DTD/svg10.dtd">
<svg version="1.0" xmlns="http://www.w3.org/2000/svg"
 width="296.000000pt" height="306.000000pt" viewBox="0 0 296.000000 306.000000"
 preserveAspectRatio="xMidYMid meet">

<g transform="translate(0.000000,306.000000) scale(0.100000,-0.100000)"
fill="#c6bfb9" stroke="none">
<path d="M1391 2992 c-71 -35 -99 -116 -65 -187 24 -51 66 -75 133 -75 47 0
57 4 87 34 19 19 34 43 34 55 0 31 -52 28 -84 -4 -30 -30 -45 -31 -80 -4 -32
25 -37 86 -8 112 25 23 65 21 87 -3 19 -21 85 -29 85 -10 0 27 -32 69 -64 84
-44 21 -82 20 -125 -2z"/>
<path d="M1131 2974 c-36 -8 -65 -15 -67 -17 -1 -1 10 -62 24 -135 l27 -134
38 6 c104 17 138 28 133 43 -3 8 -6 22 -6 30 0 13 -9 14 -55 8 -51 -6 -55 -5
-55 14 0 16 8 22 40 27 36 6 40 10 40 35 0 36 -10 41 -59 30 -36 -8 -41 -7
-41 9 0 18 26 30 68 30 20 0 23 4 20 33 -4 39 -16 41 -107 21z"/>
<path d="M1675 2979 c-11 -31 -55 -252 -51 -256 3 -3 19 -6 37 -6 32 -2 34 0
42 47 l10 48 35 -5 c19 -4 37 -8 39 -11 3 -2 0 -26 -5 -53 -12 -53 -6 -63 39
-63 25 0 26 4 53 131 15 72 26 132 24 134 -2 1 -17 6 -35 10 -29 6 -33 4 -39
-22 -14 -66 -14 -66 -51 -60 -20 4 -37 8 -39 9 -1 2 2 23 7 47 5 24 8 45 6 47
-2 2 -18 7 -35 10 -22 5 -33 2 -37 -7z"/>
<path d="M940 2927 c-22 -11 -24 -18 -22 -67 2 -30 5 -64 8 -75 3 -12 -14 1
-44 34 -65 71 -85 67 -76 -16 3 -32 8 -65 10 -73 2 -8 -20 11 -49 42 l-52 57
-33 -14 c-32 -14 -33 -15 -18 -37 37 -52 189 -196 202 -191 10 4 14 24 14 72
l1 66 42 -46 c28 -30 48 -44 61 -41 17 4 18 12 11 145 -4 78 -9 145 -12 150
-6 10 -14 9 -43 -6z"/>
<path d="M2025 2873 c-94 -25 -137 -161 -74 -230 91 -97 226 -57 254 75 9 41
-24 111 -62 134 -32 19 -89 29 -118 21z m87 -90 c26 -23 23 -69 -7 -98 -29
-30 -55 -32 -86 -7 -28 23 -30 73 -4 102 22 24 71 26 97 3z"/>
<path d="M1320 2700 c-212 -26 -427 -108 -584 -222 -46 -33 -74 -47 -82 -42
-6 5 -44 37 -83 71 -82 72 -125 93 -190 93 -90 0 -144 -60 -145 -160 -1 -96
25 -149 37 -75 7 43 43 105 61 105 7 0 26 -30 41 -67 15 -38 52 -113 81 -169
30 -55 62 -127 73 -160 28 -87 66 -169 102 -219 39 -54 208 -199 261 -223 22
-10 36 -22 33 -29 -3 -7 -8 -20 -11 -28 -5 -12 2 -15 27 -15 l34 -1 -31 -13
c-59 -26 -74 -28 -74 -12 0 9 -4 16 -10 16 -5 0 -13 15 -18 32 -10 39 -47 57
-89 42 -34 -12 -53 -56 -35 -84 16 -26 42 -101 42 -123 0 -9 -9 -34 -20 -54
-11 -21 -20 -43 -20 -48 0 -6 -17 -19 -37 -29 -59 -28 -134 -97 -154 -141 -11
-24 -19 -64 -19 -101 0 -72 -16 -94 -54 -76 -16 7 -31 32 -50 84 -114 305 -96
629 49 919 37 73 42 91 36 120 -10 39 -42 109 -51 109 -11 0 -99 -154 -134
-235 -81 -186 -112 -359 -103 -567 6 -142 20 -223 62 -356 15 -46 25 -85 23
-87 -2 -2 -39 -8 -82 -14 -44 -6 -81 -13 -83 -15 -5 -5 184 -16 285 -16 108 0
113 -7 56 -73 -33 -39 -34 -42 -15 -45 22 -3 66 -74 54 -86 -4 -3 -22 -6 -42
-6 -52 0 -71 -15 -31 -24 18 -3 47 -6 66 -6 31 0 123 -46 124 -62 0 -5 -82 -8
-182 -9 -108 -1 -173 -4 -158 -9 14 -4 105 -8 202 -9 170 -1 242 -11 222 -31
-5 -5 -42 -12 -82 -16 -40 -4 -71 -8 -70 -10 2 -1 56 -5 121 -9 96 -5 125 -11
158 -29 l40 -23 -33 -16 c-42 -19 -265 -57 -349 -58 -35 -1 -75 -4 -89 -8 -33
-10 123 -21 287 -21 67 0 123 -4 123 -8 0 -12 -29 -36 -65 -55 l-30 -16 42 -7
42 -6 -30 -59 c-22 -44 -36 -60 -56 -65 -53 -14 7 -23 155 -23 84 -1 142 -5
142 -11 0 -5 -9 -32 -20 -60 l-20 -50 494 0 495 0 -24 60 -24 60 135 1 c74 1
139 3 144 4 6 1 14 3 20 4 5 0 -2 12 -15 25 -22 22 -70 105 -63 111 2 1 21 7
43 12 l40 10 -35 15 c-19 8 -44 25 -54 37 l-19 21 134 0 c169 0 305 10 287 21
-7 5 -47 9 -88 9 -41 0 -101 5 -132 10 -32 6 -84 14 -115 20 -32 5 -75 17 -96
26 l-38 17 48 24 c39 20 62 24 142 25 134 1 158 14 43 23 -50 4 -94 11 -97 15
-12 19 70 30 239 31 100 1 192 5 206 9 15 5 -55 8 -166 9 -105 1 -194 4 -197
8 -14 14 92 63 136 63 25 0 59 3 77 6 42 9 20 24 -36 24 -22 0 -43 3 -47 6
-12 12 32 83 54 86 19 3 18 6 -15 45 -58 67 -53 73 67 73 147 0 298 12 267 21
-14 4 -43 8 -65 8 -87 3 -86 0 -49 109 45 132 64 253 64 403 0 151 -19 268
-66 409 -37 111 -111 260 -153 311 l-26 30 -19 -35 c-18 -34 -18 -38 -1 -91 9
-30 15 -62 12 -69 -3 -8 10 -53 29 -101 20 -47 47 -129 61 -183 24 -87 26
-115 26 -272 0 -157 -2 -185 -26 -272 -14 -53 -38 -122 -54 -155 -26 -54 -30
-58 -63 -58 l-35 0 0 75 c-1 50 -6 85 -18 106 -20 38 -98 109 -149 135 -29 15
-43 32 -64 79 -32 71 -96 134 -176 173 -52 25 -52 26 -20 26 32 1 32 1 16 26
-9 14 -15 27 -13 28 2 1 27 14 56 28 l52 26 9 -26 c14 -38 49 -71 76 -71 37 0
72 35 85 84 14 56 14 111 1 136 -8 16 -5 28 16 60 22 33 32 40 58 40 86 0 136
114 86 195 l-20 32 30 54 c36 64 100 194 129 263 18 42 23 47 37 35 23 -19 54
-84 54 -114 0 -37 18 -30 29 13 24 86 -2 176 -61 212 -42 26 -119 26 -175 1
-23 -11 -79 -53 -125 -94 -46 -41 -100 -79 -120 -86 -37 -12 -48 -26 -48 -64
0 -15 -24 -42 -72 -82 -40 -33 -98 -84 -130 -114 l-58 -54 -45 24 -45 24 26
13 c32 17 28 21 -33 31 l-48 8 49 23 c46 21 48 24 31 36 -22 16 -81 34 -110
34 -11 -1 -37 -7 -58 -15 -35 -12 -38 -12 -32 3 4 10 10 26 13 37 3 11 13 32
24 47 21 30 23 48 6 48 -17 -1 -78 -16 -100 -25 -15 -6 -18 -2 -18 26 0 19 4
50 10 68 5 19 8 36 6 39 -2 2 -21 -7 -43 -21 -59 -38 -111 -101 -124 -152
l-12 -46 -17 28 c-9 15 -26 36 -38 46 -22 20 -93 48 -104 41 -3 -2 5 -24 19
-49 13 -25 22 -45 19 -45 -4 0 0 -13 8 -29 l15 -28 -42 14 c-48 17 -111 12
-157 -12 -35 -18 -32 -31 9 -40 16 -3 35 -13 42 -21 9 -12 6 -14 -22 -15 -19
0 -42 -4 -52 -8 -17 -6 -16 -8 9 -20 l28 -12 -43 -25 -43 -24 -134 116 c-74
64 -134 120 -134 125 0 5 33 30 73 56 161 104 325 161 525 183 227 25 506 -39
699 -159 l64 -41 35 35 c19 19 45 35 57 35 63 1 -177 145 -326 195 -177 59
-402 85 -567 65z m-861 -157 c52 -29 73 -47 266 -232 61 -58 149 -141 196
-183 84 -75 127 -136 113 -160 -5 -7 -15 -2 -31 18 l-25 29 7 -33 c7 -34 -2
-112 -13 -111 -4 0 -45 45 -92 101 -47 55 -125 137 -174 182 -49 44 -110 113
-137 153 -71 105 -156 193 -212 219 -43 19 -47 23 -30 33 31 18 79 12 132 -16z
m2143 16 c18 -10 16 -13 -29 -33 -59 -28 -137 -106 -200 -200 -26 -39 -98
-120 -161 -181 -64 -60 -147 -148 -185 -194 -67 -80 -71 -83 -80 -60 -5 13 -7
46 -4 74 l4 49 -23 -29 c-19 -24 -24 -26 -29 -13 -13 34 30 90 165 208 47 41
148 135 225 210 82 80 159 145 185 158 49 24 100 28 132 11z m-2312 -74 c-7
-9 -15 -13 -17 -11 -7 7 7 26 19 26 6 0 6 -6 -2 -15z m2365 4 c11 -17 -1 -21
-15 -4 -8 9 -8 15 -2 15 6 0 14 -5 17 -11z m-2181 -139 c25 -38 69 -114 96
-167 62 -121 74 -139 66 -98 -6 28 -5 29 9 11 8 -11 31 -59 51 -108 38 -90 54
-114 54 -81 0 10 15 -5 35 -37 19 -30 35 -48 35 -40 1 9 14 0 35 -24 19 -22
35 -36 35 -31 0 10 33 -33 50 -65 12 -23 10 -22 -24 7 -20 18 -49 35 -64 38
-15 4 -36 8 -47 10 -34 7 -144 114 -170 165 -14 27 -43 94 -65 149 -22 56 -62
145 -89 199 -78 157 -81 185 -7 72z m2026 35 c-5 -14 -34 -77 -65 -140 -43
-90 -59 -115 -75 -115 -11 0 -20 3 -20 8 0 4 24 51 54 105 70 126 131 209 106
142z m-898 -288 c-27 -28 -28 -42 -4 -32 36 14 105 22 130 16 l26 -7 -32 -13
c-31 -13 -47 -39 -17 -27 19 7 75 -4 75 -14 0 -4 -11 -11 -25 -14 -14 -4 -25
-10 -25 -15 0 -5 11 -12 25 -15 30 -8 34 -26 6 -26 -11 0 -23 -4 -26 -10 -4
-6 11 -10 38 -10 53 0 102 -30 131 -79 l19 -33 -21 11 c-54 29 -151 -9 -225
-88 -63 -67 -96 -91 -126 -91 -25 0 -24 -1 14 -32 22 -18 43 -32 48 -30 4 1
18 -4 30 -13 30 -21 96 -19 135 5 42 26 72 76 72 120 0 32 2 36 28 35 24 -2
27 -6 30 -41 3 -50 -34 -128 -64 -132 -12 -2 -27 -13 -33 -26 -7 -12 -26 -30
-41 -40 -28 -16 -30 -16 -42 4 -19 29 -30 25 -68 -25 -19 -25 -36 -45 -39 -46
-3 0 -75 -2 -160 -3 l-153 -1 -44 50 c-41 46 -45 49 -58 33 -7 -10 -20 -18
-28 -18 -18 0 -68 44 -68 60 0 5 -9 10 -19 10 -31 0 -64 56 -69 117 l-4 53 31
0 c29 0 31 -2 31 -36 0 -20 9 -52 21 -71 52 -84 160 -84 264 2 l30 24 -27 1
c-20 0 -51 22 -117 84 -95 89 -140 112 -197 103 -40 -7 -42 2 -9 41 32 38 74
55 125 50 36 -3 39 -2 24 9 -10 7 -27 13 -37 13 -16 0 -17 3 -7 15 7 8 21 15
32 15 25 0 13 18 -20 32 l-27 10 25 10 c14 5 35 7 48 5 32 -6 27 8 -10 27 -32
15 -32 16 -8 17 52 4 106 -4 133 -17 31 -16 34 -9 11 25 -16 22 -16 23 2 13
11 -6 30 -22 43 -36 17 -18 27 -23 32 -15 4 8 16 -5 29 -32 l22 -43 19 36 c21
40 39 57 39 36 1 -8 6 -6 15 5 13 19 74 67 84 67 2 0 -5 -10 -17 -23z m705 2
c-5 -20 -5 -20 14 -3 15 14 26 16 47 8 35 -12 66 -72 54 -105 -8 -22 -9 -21
-16 14 -4 20 -16 43 -29 52 -26 18 -38 19 -31 2 2 -7 -4 -33 -15 -58 -13 -30
-20 -37 -20 -23 -2 49 -54 53 -72 6 -8 -21 -6 -31 11 -53 26 -36 25 -41 -6
-79 -22 -26 -31 -30 -56 -25 -36 8 -78 -25 -78 -63 0 -18 -4 -23 -16 -18 -19
7 -50 -8 -86 -42 -59 -55 -13 22 54 92 28 28 38 34 38 21 0 -15 3 -14 19 6 10
13 26 40 37 59 15 28 19 31 22 16 3 -13 13 2 32 46 15 36 38 81 52 99 14 19
28 42 31 52 9 24 20 21 14 -4z m-25 -106 c-25 -10 18 -43 55 -43 23 0 33 -4
31 -12 -10 -30 -81 -20 -98 13 -13 24 -7 49 12 48 10 0 10 -2 0 -6z m-97 -184
c11 -17 -1 -21 -15 -4 -8 9 -8 15 -2 15 6 0 14 -5 17 -11z m64 -30 c12 -35 5
-100 -15 -141 -18 -36 -51 -45 -75 -22 -21 22 -37 84 -21 84 5 0 12 -13 15
-29 4 -17 15 -35 26 -41 17 -9 23 -6 38 17 19 28 23 99 9 141 -5 13 -4 22 2
22 5 0 15 -14 21 -31z m-74 -13 c10 -15 15 -40 13 -63 l-3 -38 -16 45 c-9 25
-20 53 -24 63 -11 26 12 21 30 -7z m-924 -92 l22 -23 -26 -12 c-51 -23 -122
37 -103 86 5 14 11 14 46 -6 22 -13 50 -33 61 -45z m529 36 c0 -19 -9 -40 -25
-55 -26 -27 -46 -31 -76 -14 -24 13 -15 27 45 71 49 35 56 35 56 -2z m13 -78
c-24 -32 -71 -52 -98 -41 -17 6 -16 8 9 8 34 1 96 45 97 69 0 12 2 13 6 3 3
-7 -3 -25 -14 -39z m-616 -21 c13 -6 36 -11 51 -12 23 0 24 -2 8 -8 -11 -4
-30 -6 -43 -3 -24 5 -73 55 -73 75 0 7 8 0 17 -15 9 -14 27 -31 40 -37z m-382
-1 c3 -5 0 -10 -9 -10 -8 0 -23 -3 -33 -6 -16 -5 -16 -4 1 10 23 19 32 20 41
6z m29 -35 c5 -14 -27 -35 -54 -35 -11 0 -21 30 -14 41 9 15 61 10 68 -6z m-9
-49 c-16 -7 -32 -11 -35 -9 -8 7 24 23 45 22 15 0 13 -3 -10 -13z m290 -16 c3
-11 24 -42 46 -70 22 -28 37 -55 34 -60 -4 -6 -19 -17 -35 -25 -27 -14 -30
-14 -49 10 -10 14 -22 43 -26 65 -11 67 13 133 30 80z m748 -18 c7 -36 -9
-111 -29 -133 -17 -19 -38 -16 -73 10 l-24 18 35 39 c20 21 43 54 52 72 19 37
31 35 39 -6z m-1018 11 c-11 -3 -26 -10 -32 -15 -8 -6 -13 -7 -13 -1 0 16 12
23 39 22 21 -1 22 -2 6 -6z m120 -33 c-28 -29 -45 -31 -45 -5 0 7 12 18 28 23
44 17 47 14 17 -18z m-40 -61 c51 -88 255 -497 255 -511 0 -21 -22 -4 -46 37
-26 45 -39 58 -28 30 11 -26 -19 -7 -42 28 -12 17 -60 104 -107 192 -46 88
-98 186 -116 219 -30 57 -33 94 -4 59 8 -10 11 -12 7 -4 -6 12 10 30 28 31 3
0 27 -36 53 -81z m344 37 c24 -32 16 -46 -26 -46 -26 0 -33 33 -17 79 5 15 8
13 43 -33z m461 1 c0 -48 -11 -60 -43 -48 -33 13 -33 14 -1 57 30 39 44 36 44
-9z m298 19 c67 -34 142 -122 142 -167 0 -9 22 -30 50 -48 27 -18 55 -40 62
-50 7 -10 25 -25 40 -35 27 -18 58 -71 58 -100 0 -12 -15 -5 -52 25 -29 23
-73 50 -98 61 -33 14 -41 21 -30 28 21 13 12 18 -62 32 -56 10 -64 14 -50 24
16 12 15 13 -3 19 -39 12 -50 22 -53 46 -7 68 -16 92 -47 139 -39 58 -30 63
43 26z m-386 -81 c32 -8 80 -26 108 -40 27 -14 61 -25 75 -25 36 0 22 -18 -21
-26 -26 -5 -57 1 -117 22 -75 26 -94 29 -217 29 -122 0 -143 -3 -213 -28 -92
-32 -117 -33 -148 -8 l-24 19 28 -5 c19 -4 44 3 75 20 62 33 102 45 187 56 82
11 187 5 267 -14z m-807 -75 c14 -28 42 -69 63 -92 29 -32 31 -38 11 -25 -14
9 -34 29 -46 45 -20 28 -63 106 -63 117 0 15 12 0 35 -45z m-30 -20 c22 -43
20 -49 -32 -72 -59 -25 -61 -27 -44 -37 10 -6 1 -15 -32 -29 -26 -12 -62 -32
-80 -46 -43 -33 -48 -33 -36 3 11 32 115 133 160 156 15 8 30 24 34 35 8 26
12 25 30 -10z m718 -38 c27 -29 40 -75 14 -54 -10 8 -12 2 -9 -31 2 -30 0 -38
-7 -28 -7 11 -11 5 -17 -25 -3 -21 -12 -50 -20 -64 -12 -24 -13 -23 -30 38
-12 43 -20 59 -26 50 -6 -8 -8 2 -6 29 3 41 3 41 -16 25 -18 -16 -18 -16 -11
8 10 36 55 80 80 80 12 0 33 -13 48 -28z m-657 -111 c53 -24 64 -41 27 -42
-27 -1 -27 -1 5 -9 50 -12 48 -17 -14 -24 -159 -18 -265 -131 -252 -268 5 -50
2 -52 -39 -15 -16 15 -23 31 -22 56 l1 36 8 -33 c15 -62 27 -56 33 15 5 51 13
77 34 107 40 56 95 97 150 112 26 7 38 13 25 13 -34 1 -84 -22 -125 -59 l-37
-32 0 26 c0 19 9 32 33 46 17 11 27 20 21 20 -27 0 -64 -42 -64 -73 0 -22 -7
-36 -21 -46 -18 -11 -21 -11 -17 1 3 7 8 24 12 38 l7 25 -25 -28 c-28 -30 -32
-28 -15 6 10 21 9 21 -10 -2 -26 -29 -27 -18 -2 23 24 38 65 70 134 102 62 29
98 30 153 5z m1357 -14 c70 -33 147 -101 147 -130 0 -6 -11 2 -25 18 -28 34
-33 27 -9 -13 16 -26 16 -26 -10 3 -28 31 -31 23 -11 -30 7 -16 6 -18 -6 -7
-23 21 -28 13 -13 -23 7 -19 14 -56 14 -82 0 -80 20 -92 40 -25 l8 27 1 -31
c1 -22 -8 -39 -33 -63 l-35 -34 6 55 c7 71 -9 120 -59 174 -63 68 -183 107
-264 85 -35 -9 -37 -9 -20 4 25 19 96 29 150 21 25 -4 72 -24 108 -47 39 -25
52 -30 33 -14 -62 53 -105 69 -187 70 -43 0 -78 1 -78 2 0 9 137 72 158 72 7
1 46 -14 85 -32z m-1230 -123 c81 -42 219 -191 232 -250 6 -28 6 -27 -12 5
-24 45 -41 55 -75 42 -33 -12 -37 -44 -10 -74 16 -19 16 -20 -3 -9 -11 6 -44
33 -72 61 -29 27 -53 44 -53 39 0 -7 -5 -6 -14 1 -7 6 -21 8 -30 5 -10 -4 -25
1 -36 11 -11 10 -20 14 -20 8 0 -21 41 -61 78 -76 21 -9 53 -27 70 -42 30 -25
31 -28 18 -53 -7 -15 -11 -33 -9 -39 7 -20 -75 -16 -123 6 -23 10 -54 35 -70
55 -19 24 -31 31 -36 23 -5 -8 -17 -1 -38 23 -26 29 -30 31 -25 12 4 -13 1
-30 -6 -39 -11 -13 -9 -19 17 -42 17 -14 39 -31 50 -38 15 -10 16 -12 3 -12
-27 -1 -100 58 -115 94 -20 49 -17 93 10 151 36 77 138 153 209 154 15 0 42
-7 60 -16z m1097 -35 c67 -30 108 -75 126 -136 24 -81 -2 -141 -76 -177 l-35
-18 30 26 c28 23 29 26 14 41 -15 15 -18 14 -41 -14 -14 -16 -29 -27 -32 -24
-3 4 -6 -14 -6 -38 0 -38 -5 -50 -32 -75 -18 -16 -27 -22 -20 -14 13 15 16 58
4 77 -11 17 -62 21 -62 5 0 -5 10 -8 23 -8 31 1 34 -36 6 -75 -20 -29 -23 -30
-30 -13 -13 36 -7 127 11 170 10 23 35 54 54 69 20 15 34 30 32 33 -8 7 -79
-38 -94 -60 -8 -10 -20 -17 -28 -14 -11 4 -14 -6 -14 -42 0 -31 -7 -59 -22
-82 -22 -34 -22 -35 -26 -10 -6 37 -22 52 -54 48 -34 -5 -36 11 -12 93 12 40
28 65 61 97 25 23 42 42 36 42 -16 0 -103 -59 -103 -70 0 -5 -6 -10 -14 -10
-9 0 -15 -19 -19 -60 -6 -56 -23 -100 -38 -100 -4 0 -5 9 -2 20 11 40 -45 67
-76 38 -19 -18 -6 52 22 116 26 60 123 146 166 146 16 0 48 9 72 20 56 25 122
25 179 -1z m-861 -30 c66 -40 99 -98 81 -143 -10 -27 -12 -28 -29 -12 -9 9
-24 16 -33 16 -10 0 -22 22 -36 63 -11 34 -24 70 -27 80 -9 22 2 22 44 -4z
m1158 -86 c-2 -16 -4 -5 -4 22 0 28 2 40 4 28 2 -13 2 -35 0 -50z m-1840 5
c-2 -13 -4 -5 -4 17 -1 22 1 32 4 23 2 -10 2 -28 0 -40z m655 -107 c9 -19 15
-38 12 -43 -8 -13 -84 34 -84 52 0 44 49 38 72 -9z m78 -5 c-1 -29 -1 -30 -15
-12 -20 26 -20 57 0 50 9 -4 15 -19 15 -38z m347 4 c-12 -44 -16 -45 -112 -30
-37 5 -42 8 -20 9 l30 3 -35 13 c-24 9 -30 15 -20 18 39 15 89 25 126 26 l41
1 -10 -40z m-343 -115 l6 -40 -15 33 c-10 20 -20 30 -27 26 -8 -5 -9 -2 -5 10
4 10 7 27 7 39 1 21 1 21 15 -3 7 -14 16 -43 19 -65z m209 46 l127 -1 0 -56 0
-57 45 6 c25 4 56 9 70 13 23 6 25 3 25 -25 0 -19 6 -34 15 -37 13 -5 70 4
131 22 17 4 23 0 28 -21 4 -15 16 -35 26 -44 17 -14 170 -289 170 -305 0 -3
-61 -6 -135 -6 -74 0 -135 -4 -135 -9 0 -5 7 -25 15 -44 20 -48 19 -61 -2 -52
-88 34 -342 56 -520 45 -104 -7 -245 -30 -289 -47 -12 -4 -11 5 6 46 11 29 20
54 20 56 0 3 -63 5 -141 5 l-141 0 63 118 c35 64 79 147 98 184 35 66 37 68
89 79 44 9 72 8 153 -7 55 -9 102 -14 106 -10 3 3 1 36 -6 71 -6 36 -10 69 -7
73 2 4 17 7 33 6 15 -1 85 -3 156 -3z m215 -13 c3 -17 -42 -68 -59 -68 -12 0
-11 33 1 65 7 19 16 26 32 23 13 -2 24 -11 26 -20z m-473 -64 c33 -30 35 -33
10 -18 -62 36 -95 61 -89 67 9 9 32 -5 79 -49z m599 20 c9 -3 16 -13 16 -22 0
-20 -29 -52 -47 -52 -16 0 -18 51 -1 68 14 14 12 14 32 6z"/>
<path d="M1375 1559 c-4 -6 -5 -11 -4 -12 2 -1 19 -13 37 -25 43 -30 50 -23
17 17 -28 33 -40 38 -50 20z"/>
<path d="M1501 1544 c-23 -30 -28 -49 -8 -38 50 29 68 47 55 55 -20 13 -25 11
-47 -17z"/>
<path d="M885 1350 c9 -16 18 -30 21 -30 2 0 -2 14 -11 30 -9 17 -18 30 -21
30 -2 0 2 -13 11 -30z"/>
<path d="M950 1230 c11 -22 23 -40 25 -40 3 0 -4 18 -15 40 -11 22 -23 40 -25
40 -3 0 4 -18 15 -40z"/>
<path d="M995 1150 c9 -16 18 -30 21 -30 2 0 -2 14 -11 30 -9 17 -18 30 -21
30 -2 0 2 -13 11 -30z"/>
<path d="M818 1123 c7 -3 16 -2 19 1 4 3 -2 6 -13 5 -11 0 -14 -3 -6 -6z"/>
<path d="M858 1113 c6 -2 18 -2 25 0 6 3 1 5 -13 5 -14 0 -19 -2 -12 -5z"/>
<path d="M2151 1101 c30 -15 65 -31 79 -35 14 -4 -6 9 -44 29 -38 19 -74 35
-79 35 -5 0 14 -13 44 -29z"/>
<path d="M2068 1113 c7 -3 16 -2 19 1 4 3 -2 6 -13 5 -11 0 -14 -3 -6 -6z"/>
<path d="M2262 1030 c0 -14 2 -19 5 -12 2 6 2 18 0 25 -3 6 -5 1 -5 -13z"/>
<path d="M1065 456 c-18 -14 -10 -15 98 -16 71 0 117 4 117 10 0 6 -30 10 -69
10 -38 0 -81 3 -97 6 -18 3 -36 0 -49 -10z"/>
<path d="M1330 455 c-10 -13 -9 -15 11 -15 34 0 56 15 34 24 -24 9 -31 8 -45
-9z"/>
<path d="M1440 455 c-11 -13 -8 -15 20 -15 28 0 31 2 20 15 -7 8 -16 15 -20
15 -4 0 -13 -7 -20 -15z"/>
<path d="M1690 455 c-11 -13 -7 -15 26 -15 36 1 38 2 20 15 -25 19 -31 19 -46
0z"/>
<path d="M1790 455 c-13 -16 -3 -20 24 -9 9 3 13 10 10 15 -8 13 -20 11 -34
-6z"/>
<path d="M1530 450 c-11 -7 4 -10 48 -10 40 0 61 4 57 10 -8 13 -85 13 -105 0z"/>
<path d="M1713 379 c-46 -17 -27 -24 69 -27 78 -2 99 0 95 10 -2 8 -19 12 -43
11 -21 -2 -52 1 -69 6 -17 4 -40 5 -52 0z"/>
<path d="M1028 363 c-10 -13 12 -14 175 -12 126 2 186 6 184 13 -2 7 -65 11
-175 12 -140 1 -174 -1 -184 -13z"/>
<path d="M1447 374 c-19 -19 1 -24 98 -24 62 0 105 4 105 10 0 15 -47 23 -88
15 -48 -10 -73 -10 -93 -1 -8 3 -18 3 -22 0z"/>
<path d="M978 274 c-47 -20 -51 -39 -5 -28 17 4 80 7 138 6 89 -2 109 0 128
15 21 18 18 18 -101 20 -93 2 -132 -2 -160 -13z"/>
</g>
</svg>
